<svg width="407" height="420" viewBox="0 0 407 420" fill="none" xmlns="http://www.w3.org/2000/svg">
<g clip-path="url(#clip0)">
<path d="M83.4396 0H117.281C117.881 0.31785 118.517 0.563536 119.175 0.731932C123.965 1.28375 128.559 2.94977 132.589 5.59651C136.618 8.24324 139.972 11.7971 142.382 15.9733C150.993 30.0523 159.604 43.959 168.215 57.9518C173.252 66.1322 178.376 74.2696 183.284 82.5361C189.484 92.9985 195.468 103.547 201.582 114.009C201.935 114.536 202.338 115.026 202.788 115.473C203.282 114.808 203.741 114.118 204.165 113.406C208.686 105.484 213.035 97.4762 217.728 89.6402C224.315 78.7473 231.161 68.1128 237.834 57.1768C246.747 42.7965 255.53 28.3731 264.485 14.122C267.459 9.20416 272.012 5.44002 277.402 3.44439C281.234 1.98052 285.108 1.07637 288.897 0H323.341C326.226 0 329.11 0.559713 331.952 0.559713C337.489 0.465131 342.982 1.56657 348.055 3.78883C351.944 5.45237 355.401 7.98371 358.161 11.1891C360.921 14.3944 362.911 18.1889 363.979 22.2819C365.047 26.3749 365.165 30.658 364.322 34.8033C363.48 38.9486 361.7 42.8462 359.12 46.1978C347.865 60.8927 341.254 78.613 340.133 97.0887C339.462 104.503 339.78 111.974 341.08 119.305C342.606 128.657 345.371 137.765 349.303 146.386C358.992 165.953 374.417 182.099 393.521 192.67C396.384 194.139 398.906 196.194 400.924 198.701C402.941 201.208 404.409 204.112 405.231 207.223C405.705 208.988 406.265 210.71 406.824 212.476V246.92C406.471 248.098 406.24 249.31 406.136 250.536C406.136 293.046 406.136 335.569 406.136 378.108C406.24 379.334 406.471 380.546 406.824 381.724V386.03C406.308 388.57 405.834 391.067 405.231 393.564C403.944 400.69 400.396 407.212 395.114 412.164C388.387 417.738 379.813 420.581 371.089 420.129C329.541 420.129 288.036 420.129 246.488 420.129C240.762 420.129 235.036 420.129 229.266 419.483C223.946 419.186 218.803 417.467 214.373 414.506C209.943 411.545 206.389 407.451 204.079 402.649C203.575 401.851 202.999 401.102 202.357 400.41L200.635 402.606C198.276 406.238 195.581 409.64 192.584 412.767C186.23 417.87 178.2 420.419 170.066 419.914C125.662 419.914 81.3012 419.914 36.9834 419.914C32.741 419.871 28.514 419.395 24.3683 418.493C18.7664 417.45 13.6012 414.765 9.53006 410.778C5.45891 406.791 2.66583 401.683 1.50621 396.105C0.153493 389.916 -0.353435 383.572 -0.000709635 377.247C-0.000709635 333.761 -0.000709635 290.276 -0.000709635 246.833C-0.000709635 245.456 -0.000709635 244.078 -0.000709635 242.743C-0.000709635 232.711 -0.000709627 222.723 0.300674 212.605C0.171787 211.547 0.171787 210.477 0.300674 209.419C0.951462 205.973 2.34355 202.709 4.38053 199.855C6.41751 197 9.05069 194.622 12.0977 192.886C23.6656 186.426 34 177.972 42.6236 167.914C57.4043 150.696 65.7845 128.901 66.3468 106.216C66.3353 99.9751 65.7443 93.7485 64.5816 87.6166C62.1159 72.245 55.8892 57.7211 46.4555 45.3367C44.0871 42.1464 42.4425 38.4782 41.6363 34.5874C40.8301 30.6967 40.8817 26.677 41.7874 22.8082C42.6931 18.9395 44.4312 15.3146 46.8807 12.1861C49.3302 9.05751 52.4321 6.50047 55.9706 4.69298C62.0932 1.40998 69.0167 -0.082154 75.948 0.387494C78.4452 0.602768 80.9424 0 83.4396 0ZM303.235 236.027H396.879C401.184 236.027 401.184 236.027 401.184 231.721C401.184 226.167 401.184 220.613 401.184 215.102C401.423 211.292 400.528 207.496 398.613 204.194C396.697 200.891 393.847 198.23 390.421 196.545C375.365 188.168 362.49 176.37 352.834 162.101C345.17 151.168 339.765 138.815 336.933 125.767C334.102 112.718 333.901 99.2364 336.344 86.1097C339.184 70.3003 345.719 55.3857 355.417 42.5812C358.209 38.9765 359.784 34.5784 359.915 30.0209C360.047 25.4633 358.728 20.9817 356.149 17.2219C353.699 13.5432 350.346 10.5546 346.411 8.54191C342.476 6.52922 338.091 5.55977 333.674 5.72629C319.165 5.72629 304.698 5.46797 290.189 5.72629C285.69 5.60872 281.242 6.69644 277.306 8.87671C273.369 11.057 270.087 14.2505 267.8 18.1261C249.545 47.7478 231.261 77.3552 212.949 106.948C208.105 114.526 205.494 123.315 205.414 132.308C205.414 165.46 205.414 198.612 205.414 231.764C205.414 236.07 205.414 236.07 209.719 236.07L303.235 236.027ZM102.384 236.027H195.468C199.774 236.027 199.774 236.027 199.774 231.721C199.774 199.043 199.774 166.364 199.774 133.685C199.813 124.013 197.095 114.529 191.938 106.345C174.113 77.1973 155.987 48.1353 138.205 18.9441C135.818 14.7456 132.322 11.284 128.1 8.93776C123.879 6.59149 119.093 5.45075 114.267 5.64018C106.689 5.64018 99.1115 5.64018 91.5339 5.64018C83.9562 5.64018 75.3453 5.42491 67.3371 6.28601C63.2259 6.6054 59.2768 8.02664 55.9049 10.4003C52.5331 12.7739 49.8631 16.0122 48.1757 19.7747C46.4883 23.5371 45.8459 27.6848 46.3159 31.7814C46.786 35.8781 48.3513 39.7724 50.8471 43.0548C65.4447 62.284 72.6284 86.1276 71.0828 110.22C70.4188 123.342 67.1707 136.203 61.5247 148.066C51.5275 168.886 35.2889 186.073 15.0685 197.234C12.1204 198.673 9.65252 200.935 7.96374 203.747C6.27495 206.559 5.4377 209.8 5.55337 213.078C5.55337 219.407 5.55337 225.737 5.55337 232.066C5.55337 236.027 5.55336 236.027 9.60052 236.027H102.384ZM303.321 306.249H209.332C205.629 306.249 205.414 306.464 205.414 310.253C205.414 314.903 205.414 319.596 205.414 324.246C205.414 326.657 206.361 327.647 208.729 327.475C209.504 327.432 210.28 327.432 211.054 327.475H395.415C396.276 327.475 397.18 327.475 398.041 327.475C400.28 327.475 401.141 326.571 401.098 324.332C401.098 319.725 401.098 315.161 401.098 310.598C401.098 306.034 401.098 306.292 396.793 306.292L303.321 306.249ZM102.427 327.475H165.201C175.491 327.475 185.824 327.475 196.114 327.475C198.697 327.475 199.817 326.657 199.731 323.945C199.731 319.639 199.731 315.592 199.731 311.416C199.731 306.249 199.731 306.249 194.607 306.249H10.1172C9.4283 306.249 8.73942 306.249 8.05055 306.249C5.94086 306.249 5.07976 307.024 5.12282 309.134C5.12282 313.439 5.12282 318.089 5.12282 322.567C5.12282 327.045 5.12282 327.475 9.94496 327.475H102.427ZM398.3 398.128H207.739C208.968 400.479 210.319 402.764 211.786 404.974C214.476 408.261 217.92 410.851 221.826 412.522C225.731 414.194 229.982 414.898 234.218 414.575C280.143 414.575 326.068 414.575 371.993 414.575C376.397 414.509 380.759 413.723 384.91 412.25C388.109 411.141 390.996 409.279 393.326 406.822C395.656 404.364 397.362 401.382 398.3 398.128ZM196.932 398.128H7.92138C7.98165 398.609 8.08247 399.085 8.22277 399.549C8.52363 400.273 8.86872 400.977 9.25608 401.659C14.3796 411.174 23.1197 414.575 33.1085 414.575C79.3494 414.747 125.562 414.747 171.745 414.575C177.03 414.681 182.247 413.373 186.857 410.786C191.693 408.01 195.294 403.501 196.932 398.171V398.128Z" fill="black"/>
<path d="M303.235 236.026H209.548C205.242 236.026 205.242 236.026 205.242 231.721C205.242 198.569 205.242 165.417 205.242 132.264C205.322 123.271 207.933 114.483 212.777 106.905C231.147 77.312 249.488 47.719 267.801 18.1259C270.088 14.2503 273.37 11.0568 277.306 8.87656C281.243 6.69629 285.691 5.60857 290.189 5.72614C304.699 5.46781 319.165 5.72614 333.675 5.72614C338.091 5.55962 342.477 6.52907 346.412 8.54176C350.347 10.5545 353.7 13.5431 356.149 17.2218C358.779 21.0023 360.127 25.5264 359.995 30.1296C359.863 34.7328 358.259 39.1724 355.418 42.7964C345.75 55.5382 339.217 70.3756 336.344 86.1095C333.885 99.3042 334.096 112.858 336.966 125.97C339.835 139.081 345.304 151.484 353.049 162.446C362.706 176.714 375.581 188.513 390.636 196.89C393.994 198.594 396.781 201.241 398.655 204.507C400.529 207.773 401.408 211.515 401.185 215.274C401.185 220.785 401.185 226.339 401.185 231.893C401.185 236.199 401.185 236.199 396.879 236.199L303.235 236.026Z" fill="#F3E600"/>
<path d="M102.384 236.027H9.6439C5.59675 236.027 5.59675 236.027 5.59675 232.066C5.59675 225.737 5.59675 219.408 5.59675 213.079C5.47724 209.806 6.30809 206.568 7.98894 203.756C9.66979 200.944 12.1288 198.679 15.0688 197.235C35.3091 186.04 51.5498 168.806 61.525 147.937C67.171 136.074 70.4192 123.213 71.0832 110.092C72.5972 86.0427 65.4152 62.2504 50.8474 43.0556C48.3973 39.7733 46.8704 35.8951 46.425 31.8235C45.9797 27.7519 46.6322 23.6354 48.3148 19.9011C49.9975 16.1668 52.6489 12.9509 55.9939 10.5872C59.3389 8.22346 63.2556 6.79809 67.3374 6.459C75.3456 5.5979 83.4399 5.89928 91.5342 5.81317C99.6285 5.72706 106.69 5.81317 114.267 5.81317C119.076 5.60675 123.85 6.72156 128.07 9.03657C132.29 11.3516 135.796 14.7783 138.206 18.9449C155.987 48.1361 174.113 77.1981 192.024 106.303C197.15 114.437 199.867 123.857 199.86 133.471C199.86 166.149 199.86 198.828 199.86 231.507C199.86 235.812 199.86 235.812 195.555 235.812L102.384 236.027Z" fill="#F3E600"/>
<path d="M303.32 306.25H396.663C400.969 306.25 400.969 306.25 400.969 310.555C400.969 314.861 400.969 319.683 400.969 324.29C400.969 326.528 400.151 327.519 397.912 327.433C397.051 327.433 396.147 327.433 395.285 327.433H210.968C210.193 327.39 209.417 327.39 208.643 327.433C206.275 327.433 205.284 326.615 205.328 324.203C205.328 319.554 205.328 314.861 205.328 310.211C205.328 306.422 205.328 306.207 209.246 306.207H303.32V306.25Z" fill="#F3E600"/>
<path d="M102.427 327.475H9.94519C5.12305 327.475 5.12305 327.475 5.12305 322.567C5.12305 317.659 5.12305 313.612 5.12305 309.134C5.12305 307.024 5.94109 306.077 8.05078 306.249C8.73965 306.249 9.42853 306.249 10.1174 306.249H194.564C199.688 306.249 199.688 306.249 199.688 311.416C199.688 315.721 199.688 319.769 199.688 323.945C199.688 326.657 198.655 327.518 196.071 327.475C185.781 327.475 175.448 327.475 165.158 327.475H102.427Z" fill="#F3E600"/>
<path d="M398.299 398.129C397.354 401.362 395.65 404.324 393.328 406.765C391.006 409.207 388.135 411.058 384.952 412.165C380.802 413.638 376.439 414.423 372.036 414.489C326.111 414.662 280.186 414.662 234.26 414.489C230.025 414.812 225.774 414.108 221.869 412.437C217.963 410.765 214.519 408.176 211.829 404.888C210.361 402.678 209.01 400.393 207.782 398.042L398.299 398.129Z" fill="#F3E600"/>
<path d="M196.932 398.172C195.294 403.502 191.693 408.011 186.857 410.787C182.247 413.374 177.03 414.682 171.745 414.576C125.562 414.576 79.3494 414.576 33.1085 414.576C23.1197 414.576 14.3796 411.261 9.25609 401.659C8.86872 400.978 8.52363 400.273 8.22277 399.55C8.08248 399.085 7.98166 398.61 7.92139 398.129L196.932 398.172Z" fill="#F3E600"/>
</g>
<defs>
<clipPath id="clip0">
<rect width="406.825" height="420" fill="white"/>
</clipPath>
</defs>
</svg>
